<!DOCTYPE svg PUBLIC "-//W3C//DTD SVG 20010904//EN" "http://www.w3.org/TR/2001/REC-SVG-20010904/DTD/svg10.dtd">
<svg version="1.0" xmlns="http://www.w3.org/2000/svg" width="139px" height="161px" viewBox="0 0 1390 1610" preserveAspectRatio="xMidYMid meet">
<g id="layer101" fill="#000000" stroke="none">
 <path d="M2 1508 l3 -103 178 -3 177 -2 0 105 0 105 -180 0 -181 0 3 -102z"/>
 <path d="M520 1505 l0 -105 175 0 175 0 0 105 0 105 -175 0 -175 0 0 -105z"/>
 <path d="M1030 1505 l0 -105 178 2 177 3 3 103 3 102 -181 0 -180 0 0 -105z"/>
 <path d="M0 791 c0 -432 2 -486 18 -552 11 -41 27 -89 37 -108 25 -48 104 -131 126 -131 26 0 85 55 115 106 14 24 34 72 45 106 17 58 19 100 19 561 l0 497 -180 0 -180 0 0 -479z"/>
 <path d="M520 777 c0 -527 1 -539 52 -642 22 -43 105 -135 123 -135 18 0 101 92 123 135 51 103 52 115 52 642 l0 493 -175 0 -175 0 0 -493z"/>
 <path d="M1030 773 c0 -461 2 -503 19 -561 11 -34 31 -82 45 -106 30 -51 89 -106 115 -106 22 0 101 83 126 131 10 19 26 67 37 108 16 66 18 120 18 552 l0 479 -180 0 -180 0 0 -497z"/>
 </g>

</svg>