<!DOCTYPE svg PUBLIC "-//W3C//DTD SVG 20010904//EN" "http://www.w3.org/TR/2001/REC-SVG-20010904/DTD/svg10.dtd">
<svg version="1.0" xmlns="http://www.w3.org/2000/svg" width="159px" height="159px" viewBox="0 0 1590 1590" preserveAspectRatio="xMidYMid meet">
<g id="layer101" fill="#000000" stroke="none">
 <path d="M589 1577 c-80 -36 -89 -67 -89 -298 l0 -189 -189 0 c-233 0 -263 -10 -299 -93 -16 -38 -16 -366 0 -404 35 -83 66 -93 299 -93 l188 0 3 -204 c3 -189 5 -207 24 -233 41 -55 71 -62 269 -62 198 0 228 7 269 62 19 26 21 44 24 233 l3 204 189 0 c300 0 310 10 310 295 0 285 -10 295 -310 295 l-189 0 -3 204 c-3 189 -5 207 -24 233 -41 55 -71 62 -269 62 -115 -1 -189 -5 -206 -12z"/>
 </g>

</svg>