<!DOCTYPE svg PUBLIC "-//W3C//DTD SVG 20010904//EN" "http://www.w3.org/TR/2001/REC-SVG-20010904/DTD/svg10.dtd">
<svg version="1.0" xmlns="http://www.w3.org/2000/svg" width="135px" height="164px" viewBox="0 0 1350 1640" preserveAspectRatio="xMidYMid meet">
<g id="layer101" fill="#000000" stroke="none">
 <path d="M546 1573 c-163 -122 -319 -290 -446 -482 -108 -162 -101 -127 -98 -543 3 -333 5 -365 21 -390 32 -46 99 -70 362 -127 180 -39 466 -40 615 -1 19 5 78 19 130 31 99 23 176 55 201 85 12 14 14 82 14 403 l0 386 -54 90 c-106 176 -259 356 -411 486 -185 157 -203 161 -334 62z"/>
 </g>

</svg>